:FULLY-SPECIFIED
:FORCE-ALL-JOINTS-BE-3DOF
:DEGREES
951
root 1.0216 15.1993 32.7438 7.00148 -3.82123 4.80356
lfemur 7.64743 1.63709 4.13115
ltibia -0.337443 0 0
lfoot -30.4223 -11.6806 0.575373
ltoes -35.4477 0 0
rfemur -32.6774 -16.9051 -7.05665
rtibia 49.9174 -0 0
rfoot -22.508 5.47413 0.20515
rtoes -42.1308 0 0
lowerback -2.13188 -0.400174 0.950594
upperback -1.46164 -0.56397 -6.82842
thorax -0.391356 -0.326782 -7.6708
lowerneck -6.57151 0.755508 4.85037
upperneck 0.709442 0.536977 3.14325
head 1.31445 0.353665 0.179647
lclavicle -1.37161e-14 -3.97569e-14 0
lhumerus -59.6429 -44.3659 113.428
lradius 55.2874 -0 0
lwrist 25.7811 0 0
lhand 39.6624 24.4375 -0.0114338
lfingers 7.12502 -0 0
lthumb 62.1179 35.8055 -0.00514091
rclavicle -1.37161e-14 -3.97569e-14 0
rhumerus 4.06518 -43.5729 1.86775
rradius 21.2853 -0 0
rwrist -16.8632 0 0
rhand -44.1936 -52.868 -2.0473
rfingers 7.12502 -0 0
rthumb -16.855 -83.0956 -2.31575
952
root 1.00623 15.1855 32.7388 6.99162 -4.04827 4.76784
lfemur 7.85729 1.83657 4.22532
ltibia -0.438148 0 0
lfoot -30.7412 -11.1982 0.658087
ltoes -36.0635 0 0
rfemur -32.978 -17.0992 -6.90084
rtibia 50.186 -0 0
rfoot -22.8928 5.7538 0.236652
rtoes -41.9995 0 0
lowerback -2.08557 -0.407071 0.9941
upperback -1.44036 -0.574291 -6.7819
thorax -0.396499 -0.331925 -7.64559
lowerneck -6.54419 0.831559 4.97581
upperneck 0.623145 0.634064 3.11612
head 1.28127 0.399734 0.152954
lclavicle -1.37161e-14 -3.97569e-14 0
lhumerus -59.6735 -44.4183 113.594
lradius 55.2176 -0 0
lwrist 25.8509 0 0
lhand 39.4713 24.4235 -0.013387
lfingers 7.12502 -0 0
lthumb 61.9593 35.9942 -0.00583261
rclavicle -1.37161e-14 -3.97569e-14 0
rhumerus 4.13594 -44.2152 2.60993
rradius 20.2798 -0 0
rwrist -16.7893 0 0
rhand -44.4409 -53.0829 -2.29973
rfingers 7.12502 -0 0
rthumb -17.0707 -83.4046 -2.60404
953
root 0.9957 15.1746 32.7337 6.974 -4.26928 4.73016
lfemur 8.05711 2.02735 4.3212
ltibia -0.523772 0 0
lfoot -31.0191 -10.7784 0.727328
ltoes -36.5857 0 0
rfemur -33.2648 -17.2669 -6.74911
rtibia 50.445 -0 0
rfoot -23.2404 6.01612 0.263973
rtoes -41.8713 0 0
lowerback -2.03923 -0.414572 1.03048
upperback -1.41751 -0.585155 -6.73335
thorax -0.400023 -0.337195 -7.61408
lowerneck -6.51652 0.904408 5.09683
upperneck 0.540078 0.727067 3.09487
head 1.24942 0.443859 0.128741
lclavicle -1.37161e-14 -3.97569e-14 0
lhumerus -59.6872 -44.4585 113.749
lradius 55.15 -0 0
lwrist 25.9042 0 0
lhand 39.2798 24.4172 -0.0151265
lfingers 7.12502 -0 0
lthumb 61.8 36.1891 -0.00623487
rclavicle -1.37161e-14 -3.97569e-14 0
rhumerus 4.19969 -44.5971 3.26246
rradius 19.4663 -0 0
rwrist -16.6794 0 0
rhand -44.5293 -53.211 -2.49491
rfingers 7.12502 -0 0
rthumb -17.1372 -83.6132 -2.82817
954
root 0.989454 15.1663 32.7285 6.94908 -4.48231 4.69098
lfemur 8.24532 2.20791 4.41769
ltibia -0.594069 0 0
lfoot -31.255 -10.4225 0.782131
ltoes -37.013 0 0
rfemur -33.5354 -17.4076 -6.60306
rtibia 50.6923 -0 0
rfoot -23.5488 6.25923 0.286654
rtoes -41.7472 0 0
lowerback -1.99331 -0.422571 1.05964
upperback -1.39339 -0.596439 -6.68332
thorax -0.401957 -0.342537 -7.57684
lowerneck -6.4888 0.973464 5.21243
upperneck 0.460944 0.815247 3.07951
head 1.21916 0.485684 0.107149
lclavicle -1.37161e-14 -3.97569e-14 0
lhumerus -59.6843 -44.4868 113.893
lradius 55.0853 -0 0
lwrist 25.9411 0 0
lhand 39.0898 24.4182 -0.0166075
lfingers 7.12502 -0 0
lthumb 61.6417 36.388 -0.00631387
rclavicle -1.37161e-14 -3.97569e-14 0
rhumerus 4.26265 -44.7251 3.81803
rradius 18.8451 -0 0
rwrist -16.536 0 0
rhand -44.4647 -53.2555 -2.63246
rfingers 7.12502 -0 0
rthumb -17.0604 -83.7241 -2.98749
